<?xml version="1.0" encoding="utf-8"?>
<!-- Generator: Adobe Illustrator 26.5.0, SVG Export Plug-In . SVG Version: 6.00 Build 0)  -->
<svg version="1.1" id="Layer_1" xmlns="http://www.w3.org/2000/svg" xmlns:xlink="http://www.w3.org/1999/xlink" x="0px" y="0px"
	 viewBox="0 0 595.28 78" style="enable-background:new 0 0 595.28 78;" xml:space="preserve">
<style type="text/css">
	.st0{fill:#FFF;}
</style>
<g>
	<g>
		<path class="st0" d="M59.39,10.09l-1.32,13c-5.76-0.08-9.54-0.17-17.36-0.17c-5.59,0-6.99,2.8-6.99,14.32s1.4,14.32,6.99,14.32
			c8.23,0,13.08-0.08,18.59-0.66l1.32,13c-5.76,1.97-11.03,2.71-19.91,2.71c-18.84,0-25.75-7.73-25.75-29.37
			c0-21.64,6.91-29.37,25.75-29.37C49.6,7.87,53.72,8.52,59.39,10.09z"/>
		<path class="st0" d="M116.91,37.24c0,23.37-6.99,29.54-26.49,29.54c-19.42,0-26.41-6.17-26.41-29.54S71,7.7,90.42,7.7
			C109.92,7.7,116.91,13.87,116.91,37.24z M82.76,37.24c0,13.16,1.56,16.29,7.65,16.29c6.09,0,7.65-3.13,7.65-16.29
			s-1.56-16.29-7.65-16.29C84.33,20.95,82.76,24.07,82.76,37.24z"/>
		<path class="st0" d="M192.61,15.02l1.97,50.6h-16.04l-1.73-43.44h-1.23l-5.59,28.96c-0.58,3.62-2.96,5.43-6.75,5.43h-9.21
			c-3.79,0-6.17-1.81-6.83-5.43l-5.68-28.96h-1.23l-1.4,43.44h-16.04l1.97-50.6c0.16-4.03,2.14-6.17,6.25-6.17h15.39
			c3.7,0,6.09,1.81,6.75,5.51l4.11,22.54c0.41,2.8,0.66,5.68,0.91,8.47h0.74c0.33-2.8,0.58-5.68,0.99-8.47l3.87-22.54
			c0.66-3.7,3.04-5.51,6.83-5.51h15.71C190.47,8.85,192.44,10.99,192.61,15.02z"/>
		<path class="st0" d="M219.93,65.62h-17.69V8.85h17.69V65.62z"/>
		<path class="st0" d="M280.81,59.45c0,4.03-2.14,6.17-6.17,6.17h-6.83c-3.7,0-5.02-1.81-6.91-5.18l-12.34-19.5
			c-1.56-2.8-2.8-6.25-3.79-9.71h-0.58c0.49,3.46,0.82,7.08,0.82,10.37v24.02h-16.46v-50.6c0-4.03,2.14-6.17,6.17-6.17h6.83
			c3.7,0,4.94,1.81,6.91,5.18l11.85,18.59c1.56,2.71,3.04,6.09,4.36,9.71h0.58c-0.41-3.46-0.74-6.83-0.74-10.28l-0.08-23.2h16.37
			V59.45z"/>
		<path class="st0" d="M336.93,32.96v32.66h-13.16l-1.56-5.84c-2.63,3.21-8.06,6.99-15.71,6.99c-13.08,0-18.84-8.06-18.84-29.54
			c0-21.8,7.16-29.54,26.74-29.54c9.05,0,14.15,0.66,20.16,2.39l-1.32,12.83c-6.25-0.08-11.11-0.16-18.76-0.16
			c-6.34,0-8.06,2.8-8.06,14.48c0,11.52,1.65,14.32,7.24,14.32c2.39,0,4.53-0.25,6.17-0.49v-18.1H336.93z"/>
		<path class="st0" d="M403.74,10.58l-1.07,11.44c-4.94-0.08-12.92-0.16-19.99-0.16c-4.11,0-5.27,0.41-5.27,2.14
			c0,1.56,1.07,2.39,4.94,3.87l10.29,4.28c9.46,4.11,12.75,8.97,12.75,17.28c0,12.75-5.51,17.36-23.2,17.36
			c-3.87,0-12.09-0.25-21.97-2.8l1.07-12.51c9.79,0.25,17.61,0.41,20.65,0.41c4.53,0,5.59-0.41,5.59-1.97s-0.82-2.3-3.87-3.46
			l-11.27-4.94c-9.21-4.11-12.67-8.8-12.67-17.11c0-12.92,6.25-16.7,23.37-16.7C389.01,7.7,396.91,8.19,403.74,10.58z"/>
		<path class="st0" d="M462.98,37.24c0,23.37-6.99,29.54-26.49,29.54c-19.42,0-26.41-6.17-26.41-29.54S417.07,7.7,436.49,7.7
			C455.99,7.7,462.98,13.87,462.98,37.24z M428.84,37.24c0,13.16,1.56,16.29,7.65,16.29c6.09,0,7.65-3.13,7.65-16.29
			s-1.56-16.29-7.65-16.29C430.4,20.95,428.84,24.07,428.84,37.24z"/>
		<path class="st0" d="M521.15,37.24c0,23.37-6.99,29.54-26.49,29.54c-19.42,0-26.41-6.17-26.41-29.54S475.24,7.7,494.66,7.7
			C514.16,7.7,521.15,13.87,521.15,37.24z M487.01,37.24c0,13.16,1.56,16.29,7.65,16.29c6.09,0,7.65-3.13,7.65-16.29
			s-1.56-16.29-7.65-16.29C488.57,20.95,487.01,24.07,487.01,37.24z"/>
		<path class="st0" d="M580.31,59.45c0,4.03-2.14,6.17-6.17,6.17h-6.83c-3.7,0-5.02-1.81-6.91-5.18l-12.34-19.5
			c-1.56-2.8-2.8-6.25-3.79-9.71h-0.58c0.49,3.46,0.82,7.08,0.82,10.37v24.02h-16.46v-50.6c0-4.03,2.14-6.17,6.17-6.17h6.83
			c3.7,0,4.94,1.81,6.91,5.18l11.85,18.59c1.56,2.71,3.04,6.09,4.36,9.71h0.58c-0.41-3.46-0.74-6.83-0.74-10.28l-0.08-23.2h16.37
			V59.45z"/>
	</g>
</g>
</svg>
